<svg width="41" height="40" viewBox="0 0 41 40" fill="none" xmlns="http://www.w3.org/2000/svg">
<circle cx="20.3076" cy="20" r="20" fill="white"/>
<path d="M26.408 14.6352C26.2814 14.5697 26.1582 14.498 26.0388 14.4203C25.6916 14.1908 25.3733 13.9204 25.0908 13.6148C24.3837 12.8059 24.1197 11.9852 24.0224 11.4105H24.0263C23.9451 10.9336 23.9787 10.625 23.9837 10.625H20.7634V23.0773C20.7634 23.2445 20.7634 23.4098 20.7564 23.573C20.7564 23.5934 20.7544 23.6121 20.7533 23.634C20.7533 23.643 20.7533 23.6523 20.7513 23.6617C20.7513 23.6641 20.7513 23.6664 20.7513 23.6687C20.7174 24.1155 20.5741 24.5471 20.3342 24.9256C20.0943 25.304 19.7651 25.6177 19.3755 25.8391C18.9695 26.0701 18.5103 26.1912 18.0431 26.1906C16.5427 26.1906 15.3267 24.9672 15.3267 23.4562C15.3267 21.9453 16.5427 20.7219 18.0431 20.7219C18.3271 20.7216 18.6094 20.7663 18.8794 20.8543L18.8833 17.5754C18.0636 17.4695 17.2307 17.5346 16.4374 17.7667C15.6441 17.9988 14.9074 18.3928 14.274 18.9238C13.7189 19.4061 13.2523 19.9815 12.8951 20.6242C12.7591 20.8586 12.2462 21.8004 12.1841 23.3289C12.1451 24.1965 12.4056 25.0953 12.5298 25.4668V25.4746C12.608 25.6934 12.9107 26.4398 13.404 27.0691C13.8019 27.5739 14.2719 28.0174 14.799 28.3852V28.3773L14.8068 28.3852C16.3658 29.4445 18.0943 29.375 18.0943 29.375C18.3935 29.3629 19.3958 29.375 20.5341 28.8355C21.7966 28.2375 22.5154 27.3465 22.5154 27.3465C22.9746 26.8141 23.3397 26.2074 23.5951 25.5523C23.8865 24.7863 23.9837 23.8676 23.9837 23.5004V16.8941C24.0228 16.9176 24.5431 17.2617 24.5431 17.2617C24.5431 17.2617 25.2927 17.7422 26.4622 18.0551C27.3013 18.2777 28.4318 18.3246 28.4318 18.3246V15.1277C28.0357 15.1707 27.2314 15.0457 26.408 14.6352Z" fill="#FD3333"/>
</svg>
