<svg width="41" height="40" viewBox="0 0 41 40" fill="none" xmlns="http://www.w3.org/2000/svg">
<circle cx="20.769" cy="20" r="20" fill="white"/>
<path d="M20.7687 15.2617C19.8313 15.2617 18.9148 15.5397 18.1354 16.0605C17.3559 16.5814 16.7484 17.3216 16.3896 18.1877C16.0309 19.0538 15.937 20.0069 16.1199 20.9263C16.3028 21.8458 16.7542 22.6903 17.4171 23.3532C18.08 24.0161 18.9246 24.4675 19.844 24.6504C20.7635 24.8333 21.7165 24.7395 22.5826 24.3807C23.4487 24.022 24.189 23.4144 24.7098 22.635C25.2306 21.8555 25.5086 20.9391 25.5086 20.0016C25.5086 19.3792 25.386 18.7628 25.1478 18.1877C24.9097 17.6126 24.5605 17.0901 24.1204 16.65C23.6802 16.2098 23.1577 15.8607 22.5826 15.6225C22.0075 15.3843 21.3912 15.2617 20.7687 15.2617ZM20.7687 23.0788C20.1601 23.0788 19.5652 22.8983 19.0591 22.5602C18.5531 22.222 18.1587 21.7414 17.9258 21.1792C17.6929 20.6169 17.6319 19.9982 17.7507 19.4012C17.8694 18.8043 18.1625 18.256 18.5928 17.8257C19.0232 17.3953 19.5715 17.1023 20.1684 16.9835C20.7653 16.8648 21.3841 16.9258 21.9463 17.1587C22.5086 17.3916 22.9892 17.786 23.3273 18.292C23.6654 18.7981 23.8459 19.393 23.8459 20.0016C23.846 20.4057 23.7664 20.8059 23.6118 21.1793C23.4571 21.5526 23.2305 21.8919 22.9447 22.1776C22.659 22.4634 22.3197 22.69 21.9464 22.8446C21.573 22.9993 21.1728 23.0788 20.7687 23.0788Z" fill="#FD3333"/>
<path d="M29.9438 16.1946C29.9287 15.4289 29.7837 14.6713 29.515 13.9541C29.2829 13.3383 28.9195 12.7803 28.4503 12.3189C27.9895 11.8492 27.4317 11.4858 26.8159 11.2541C26.0987 10.9853 25.3411 10.8404 24.5753 10.8254C23.5911 10.7806 23.2764 10.7695 20.7696 10.7695C18.2629 10.7695 17.948 10.7799 16.9632 10.8254C16.1975 10.8405 15.4399 10.9855 14.7226 11.2541C14.1067 11.486 13.5487 11.8493 13.0874 12.3189C12.6175 12.7797 12.2541 13.3379 12.0228 13.9541C11.7541 14.6713 11.6092 15.4289 11.594 16.1946C11.5485 17.1788 11.5381 17.4935 11.5381 20.0003C11.5381 22.5071 11.5485 22.8217 11.594 23.8059C11.6092 24.5717 11.7541 25.3293 12.0228 26.0465C12.2541 26.6627 12.6175 27.2208 13.0874 27.6817C13.5489 28.151 14.1068 28.5142 14.7226 28.7464C15.4399 29.0149 16.1975 29.1599 16.9632 29.1751C17.948 29.2199 18.2621 29.2311 20.7689 29.2311C23.2757 29.2311 23.5903 29.2206 24.5746 29.1751C25.3403 29.16 26.0979 29.015 26.8151 28.7464C27.4284 28.5093 27.9854 28.1466 28.4503 27.6817C28.9153 27.2168 29.2779 26.6598 29.515 26.0465C29.784 25.3294 29.929 24.5717 29.9438 23.8059C29.9886 22.821 29.9989 22.5071 29.9989 20.0003C29.9989 17.4935 29.9886 17.1788 29.9438 16.1946ZM28.2832 23.7307C28.2761 24.316 28.1687 24.8958 27.9656 25.4449C27.812 25.843 27.5767 26.2045 27.2749 26.5061C26.9731 26.8078 26.6115 27.0429 26.2134 27.1964C25.6645 27.3999 25.0846 27.5073 24.4992 27.5139C23.5262 27.5586 23.2339 27.5676 20.7688 27.5676C18.3037 27.5676 18.0123 27.5586 17.0396 27.5139C16.4542 27.5072 15.8743 27.3998 15.3254 27.1964C14.9244 27.0482 14.5616 26.8123 14.2636 26.5059C13.9567 26.2085 13.7208 25.8459 13.5731 25.4449C13.3696 24.896 13.2622 24.3161 13.2556 23.7307C13.2108 22.7577 13.2019 22.4655 13.2019 20.0004C13.2019 17.5353 13.2116 17.2438 13.2556 16.27C13.263 15.6847 13.3704 15.105 13.5731 14.5559C13.7213 14.1549 13.9572 13.7922 14.2636 13.4941C14.5611 13.1871 14.924 12.9511 15.3254 12.8037C15.8743 12.6002 16.4542 12.4927 17.0396 12.4861C18.0126 12.4414 18.3048 12.4324 20.7688 12.4324C23.2328 12.4324 23.5253 12.4421 24.4992 12.4861C25.0845 12.4935 25.6643 12.6009 26.2134 12.8037C26.6117 12.9571 26.9733 13.1923 27.2752 13.4941C27.577 13.7959 27.8122 14.1576 27.9656 14.5559C28.1691 15.1048 28.2765 15.6847 28.2832 16.27C28.3279 17.2439 28.3368 17.5353 28.3368 20.0004C28.3368 22.4654 28.3279 22.7569 28.2832 23.7307Z" fill="#FD3333"/>
<path d="M25.6961 13.9609C25.4024 13.961 25.1203 14.0777 24.9127 14.2854C24.705 14.4931 24.5884 14.7748 24.5884 15.0685C24.5884 15.3622 24.7051 15.6439 24.9128 15.8516C25.1205 16.0593 25.4022 16.1759 25.6959 16.1759C25.9896 16.1759 26.2713 16.0593 26.479 15.8516C26.6867 15.6439 26.8034 15.3622 26.8034 15.0685C26.8034 14.7748 26.6868 14.4931 26.4791 14.2854C26.2715 14.0777 25.9898 13.961 25.6961 13.9609Z" fill="#FD3333"/>
</svg>
